<svg xmlns="http://www.w3.org/2000/svg" xmlns:xlink="http://www.w3.org/1999/xlink" width="2000" zoomAndPan="magnify" viewBox="0 0 1500 1499.999933" height="2000" preserveAspectRatio="xMidYMid meet" version="1.0"><path stroke-linecap="butt" transform="matrix(0, 0.75, -0.75, 0, 480.426664, 288.620142)" fill="none" stroke-linejoin="miter" d="M 0.00126961 50.001181 L 1161.329495 50.001181 " stroke="#4f46e5" stroke-width="100" stroke-opacity="1" stroke-miterlimit="4"/><path stroke-linecap="butt" transform="matrix(-0.75, 0, 0, -0.75, 1129.090376, 1183.10155)" fill="none" stroke-linejoin="miter" d="M 0.000709797 49.999988 L 965.110168 49.999988 " stroke="#4f46e5" stroke-width="100" stroke-opacity="1" stroke-miterlimit="4"/><path stroke-linecap="butt" transform="matrix(0, -0.75, 0.75, 0, 1081.5099, 1182.90139)" fill="none" stroke-linejoin="miter" d="M -0.00127152 50.002429 L 1242.050919 50.002429 " stroke="#4f46e5" stroke-width="100" stroke-opacity="1" stroke-miterlimit="4"/><path stroke-linecap="butt" transform="matrix(-0.75, 0, 0, -0.75, 1129.090376, 326.114602)" fill="none" stroke-linejoin="miter" d="M 0.000709797 50.001765 L 965.110168 50.001765 " stroke="#4f46e5" stroke-width="100" stroke-opacity="1" stroke-miterlimit="4"/><path stroke-linecap="butt" transform="matrix(-0.75, 0, 0, -0.75, 1119.010257, 613.308551)" fill="none" stroke-linejoin="miter" d="M -0.00194905 49.999948 L 901.440837 49.999948 " stroke="#4f46e5" stroke-width="100" stroke-opacity="1" stroke-miterlimit="4"/><path stroke-linecap="butt" transform="matrix(-0.75, 0, 0, -0.75, 1119.010257, 900.558478)" fill="none" stroke-linejoin="miter" d="M -0.00194905 49.999851 L 901.440837 49.999851 " stroke="#4f46e5" stroke-width="100" stroke-opacity="1" stroke-miterlimit="4"/></svg>