<svg xmlns="http://www.w3.org/2000/svg" xmlns:xlink="http://www.w3.org/1999/xlink" width="2000" zoomAndPan="magnify" viewBox="0 0 1500 1499.999933" height="2000" preserveAspectRatio="xMidYMid meet" version="1.0"><path stroke-linecap="butt" transform="matrix(0, 0.75, -0.75, 0, 470.676665, 288.620142)" fill="none" stroke-linejoin="miter" d="M 0.00126961 37.001181 L 1161.329495 37.001181 " stroke="#4f46e5" stroke-width="74" stroke-opacity="1" stroke-miterlimit="4"/><path stroke-linecap="butt" transform="matrix(-0.75, 0, 0, -0.75, 1091.022707, 1173.351551)" fill="none" stroke-linejoin="miter" d="M -0.000973498 36.999988 L 900.868896 36.999988 " stroke="#4f46e5" stroke-width="74" stroke-opacity="1" stroke-miterlimit="4"/><path stroke-linecap="butt" transform="matrix(0, -0.75, 0.75, 0, 1046.650383, 1172.795735)" fill="none" stroke-linejoin="miter" d="M -0.00152002 36.997409 L 1197.889208 36.997409 " stroke="#4f46e5" stroke-width="74" stroke-opacity="1" stroke-miterlimit="4"/><path stroke-linecap="butt" transform="matrix(-0.75, 0, 0, -0.75, 1101.82741, 316.364602)" fill="none" stroke-linejoin="miter" d="M -0.000952739 37.001765 L 915.280376 37.001765 " stroke="#4f46e5" stroke-width="74" stroke-opacity="1" stroke-miterlimit="4"/><path stroke-linecap="butt" transform="matrix(-0.75, 0, 0, -0.75, 1074.396973, 603.558552)" fill="none" stroke-linejoin="miter" d="M -0.00195292 36.999948 L 841.96687 36.999948 " stroke="#4f46e5" stroke-width="74" stroke-opacity="1" stroke-miterlimit="4"/><path stroke-linecap="butt" transform="matrix(-0.75, 0, 0, -0.75, 1074.396973, 890.808479)" fill="none" stroke-linejoin="miter" d="M -0.00195292 36.999851 L 841.96687 36.999851 " stroke="#4f46e5" stroke-width="74" stroke-opacity="1" stroke-miterlimit="4"/></svg>