<svg xmlns="http://www.w3.org/2000/svg" xmlns:xlink="http://www.w3.org/1999/xlink" width="2000" zoomAndPan="magnify" viewBox="0 0 1500 1499.999933" height="2000" preserveAspectRatio="xMidYMid meet" version="1.0"><path stroke-linecap="butt" transform="matrix(0, 0.75, -0.75, 0, 459.426666, 288.620142)" fill="none" stroke-linejoin="miter" d="M 0.00126961 22.001181 L 1161.329495 22.001181 " stroke="#4f46e5" stroke-width="44" stroke-opacity="1" stroke-miterlimit="4"/><path stroke-linecap="butt" transform="matrix(-0.75, 0, 0, -0.75, 1091.027987, 1162.101552)" fill="none" stroke-linejoin="miter" d="M 0.000858168 21.999988 L 886.000934 21.999988 " stroke="#4f46e5" stroke-width="44" stroke-opacity="1" stroke-miterlimit="4"/><path stroke-linecap="butt" transform="matrix(0, -0.75, 0.75, 0, 1057.900382, 1145.596633)" fill="none" stroke-linejoin="miter" d="M -0.0013639 21.997409 L 1161.623736 21.997409 " stroke="#4f46e5" stroke-width="44" stroke-opacity="1" stroke-miterlimit="4"/><path stroke-linecap="butt" transform="matrix(-0.75, 0, 0, -0.75, 1091.027987, 305.114603)" fill="none" stroke-linejoin="miter" d="M 0.000858168 22.001765 L 886.000934 22.001765 " stroke="#4f46e5" stroke-width="44" stroke-opacity="1" stroke-miterlimit="4"/><path stroke-linecap="butt" transform="matrix(-0.75, 0, 0, -0.75, 1074.396973, 592.308553)" fill="none" stroke-linejoin="miter" d="M -0.00195292 21.999948 L 841.96687 21.999948 " stroke="#4f46e5" stroke-width="44" stroke-opacity="1" stroke-miterlimit="4"/><path stroke-linecap="butt" transform="matrix(-0.75, 0, 0, -0.75, 1074.396973, 879.55848)" fill="none" stroke-linejoin="miter" d="M -0.00195292 21.999851 L 841.96687 21.999851 " stroke="#4f46e5" stroke-width="44" stroke-opacity="1" stroke-miterlimit="4"/></svg>